REM DIRINDEX 1\2,1\3
REM DIRNAME folder01,folder02,folder03
TITLE ""
FILE "Track62.mp3" MP3
  TRACK 01 AUDIO
    TITLE "2:cjc103_656"
    INDEX 01 00:00:00
  TRACK 02 AUDIO
    TITLE "0:"
    INDEX 01 01:59:12
  TRACK 03 AUDIO
    TITLE "3:cjc103_657"
    INDEX 01 02:00:18
  TRACK 04 AUDIO
    TITLE "0:"
    INDEX 01 02:01:54
  TRACK 05 AUDIO
    TITLE "3:cjc103_658"
    INDEX 01 02:02:34
  TRACK 06 AUDIO
    TITLE "0:"
    INDEX 01 02:03:71
